<svg xmlns="http://www.w3.org/2000/svg" viewBox="0 0 296 53" role="img" aria-labelledby="title desc" shape-rendering="crispEdges">
  <title id="title">OwnMesh</title>
  <desc id="desc">Pixel wordmark with a mesh-shaped letter M</desc>
  <rect x="10" y="5" width="1" height="1" fill="#666666"/>
  <rect x="11" y="5" width="23" height="1" fill="#8b8b8b"/>
  <rect x="34" y="5" width="1" height="1" fill="#666666"/>
  <rect x="136" y="5" width="1" height="1" fill="#8b8b8b"/>
  <rect x="137" y="5" width="6" height="1" fill="#b5b5b5"/>
  <rect x="143" y="5" width="1" height="3" fill="#666666"/>
  <rect x="171" y="5" width="1" height="1" fill="#8b8b8b"/>
  <rect x="172" y="5" width="6" height="1" fill="#b5b5b5"/>
  <rect x="178" y="5" width="1" height="8" fill="#8b8b8b"/>
  <rect x="260" y="5" width="1" height="42" fill="#666666"/>
  <rect x="261" y="5" width="1" height="1" fill="#d6d6d6"/>
  <rect x="262" y="5" width="4" height="1" fill="#b5b5b5"/>
  <rect x="266" y="5" width="1" height="1" fill="#d6d6d6"/>
  <rect x="267" y="5" width="1" height="10" fill="#666666"/>
  <rect x="10" y="6" width="25" height="2" fill="#8b8b8b"/>
  <rect x="136" y="6" width="7" height="2" fill="#b5b5b5"/>
  <rect x="171" y="6" width="7" height="2" fill="#b5b5b5"/>
  <rect x="261" y="6" width="6" height="5" fill="#d6d6d6"/>
  <rect x="8" y="8" width="29" height="2" fill="#8b8b8b"/>
  <rect x="136" y="8" width="9" height="4" fill="#b5b5b5"/>
  <rect x="169" y="8" width="1" height="5" fill="#8b8b8b"/>
  <rect x="170" y="8" width="8" height="5" fill="#b5b5b5"/>
  <rect x="6" y="10" width="33" height="1" fill="#8b8b8b"/>
  <rect x="5" y="11" width="1" height="3" fill="#666666"/>
  <rect x="6" y="11" width="6" height="30" fill="#8b8b8b"/>
  <rect x="12" y="11" width="21" height="1" fill="#666666"/>
  <rect x="33" y="11" width="6" height="30" fill="#8b8b8b"/>
  <rect x="145" y="11" width="1" height="1" fill="#8b8b8b"/>
  <rect x="146" y="11" width="1" height="1" fill="#666666"/>
  <rect x="168" y="11" width="1" height="1" fill="#666666"/>
  <rect x="261" y="11" width="2" height="1" fill="#d6d6d6"/>
  <rect x="263" y="11" width="3" height="1" fill="#b5b5b5"/>
  <rect x="266" y="11" width="1" height="1" fill="#d6d6d6"/>
  <rect x="136" y="12" width="11" height="1" fill="#b5b5b5"/>
  <rect x="167" y="12" width="1" height="1" fill="#8b8b8b"/>
  <rect x="168" y="12" width="1" height="1" fill="#b5b5b5"/>
  <rect x="261" y="12" width="6" height="4" fill="#d6d6d6"/>
  <rect x="32" y="13" width="1" height="11" fill="#666666"/>
  <rect x="136" y="13" width="5" height="1" fill="#b5b5b5"/>
  <rect x="141" y="13" width="1" height="1" fill="#8b8b8b"/>
  <rect x="142" y="13" width="3" height="1" fill="#666666"/>
  <rect x="145" y="13" width="1" height="2" fill="#8b8b8b"/>
  <rect x="146" y="13" width="1" height="2" fill="#b5b5b5"/>
  <rect x="147" y="13" width="1" height="2" fill="#8b8b8b"/>
  <rect x="166" y="13" width="1" height="1" fill="#666666"/>
  <rect x="167" y="13" width="2" height="1" fill="#8b8b8b"/>
  <rect x="169" y="13" width="1" height="1" fill="#666666"/>
  <rect x="172" y="13" width="1" height="3" fill="#8b8b8b"/>
  <rect x="173" y="13" width="5" height="2" fill="#b5b5b5"/>
  <rect x="178" y="13" width="1" height="2" fill="#666666"/>
  <rect x="136" y="14" width="6" height="1" fill="#b5b5b5"/>
  <rect x="148" y="14" width="1" height="1" fill="#b5b5b5"/>
  <rect x="165" y="14" width="1" height="1" fill="#b5b5b5"/>
  <rect x="166" y="14" width="3" height="1" fill="#8b8b8b"/>
  <rect x="49" y="15" width="6" height="1" fill="#666666"/>
  <rect x="65" y="15" width="7" height="1" fill="#666666"/>
  <rect x="82" y="15" width="7" height="1" fill="#666666"/>
  <rect x="98" y="15" width="23" height="1" fill="#666666"/>
  <rect x="138" y="15" width="2" height="11" fill="#666666"/>
  <rect x="141" y="15" width="2" height="1" fill="#666666"/>
  <rect x="147" y="15" width="4" height="1" fill="#8b8b8b"/>
  <rect x="163" y="15" width="1" height="1" fill="#666666"/>
  <rect x="164" y="15" width="3" height="1" fill="#8b8b8b"/>
  <rect x="167" y="15" width="1" height="1" fill="#666666"/>
  <rect x="175" y="15" width="1" height="11" fill="#8b8b8b"/>
  <rect x="193" y="15" width="1" height="1" fill="#666666"/>
  <rect x="194" y="15" width="1" height="1" fill="#b5b5b5"/>
  <rect x="195" y="15" width="5" height="1" fill="#8b8b8b"/>
  <rect x="200" y="15" width="1" height="1" fill="#b5b5b5"/>
  <rect x="201" y="15" width="10" height="1" fill="#8b8b8b"/>
  <rect x="211" y="15" width="1" height="1" fill="#b5b5b5"/>
  <rect x="212" y="15" width="1" height="1" fill="#8b8b8b"/>
  <rect x="229" y="15" width="22" height="1" fill="#8b8b8b"/>
  <rect x="267" y="15" width="1" height="1" fill="#b5b5b5"/>
  <rect x="268" y="15" width="11" height="1" fill="#8b8b8b"/>
  <rect x="279" y="15" width="2" height="1" fill="#b5b5b5"/>
  <rect x="281" y="15" width="1" height="1" fill="#8b8b8b"/>
  <rect x="282" y="15" width="1" height="1" fill="#b5b5b5"/>
  <rect x="283" y="15" width="1" height="1" fill="#8b8b8b"/>
  <rect x="49" y="16" width="6" height="22" fill="#8b8b8b"/>
  <rect x="55" y="16" width="1" height="22" fill="#666666"/>
  <rect x="65" y="16" width="1" height="22" fill="#666666"/>
  <rect x="66" y="16" width="6" height="22" fill="#8b8b8b"/>
  <rect x="82" y="16" width="6" height="22" fill="#8b8b8b"/>
  <rect x="88" y="16" width="1" height="26" fill="#666666"/>
  <rect x="98" y="16" width="23" height="2" fill="#8b8b8b"/>
  <rect x="121" y="16" width="1" height="2" fill="#666666"/>
  <rect x="142" y="16" width="1" height="1" fill="#8b8b8b"/>
  <rect x="143" y="16" width="1" height="1" fill="#666666"/>
  <rect x="148" y="16" width="2" height="1" fill="#8b8b8b"/>
  <rect x="150" y="16" width="1" height="1" fill="#b5b5b5"/>
  <rect x="151" y="16" width="1" height="1" fill="#666666"/>
  <rect x="163" y="16" width="1" height="1" fill="#b5b5b5"/>
  <rect x="164" y="16" width="2" height="1" fill="#8b8b8b"/>
  <rect x="166" y="16" width="1" height="1" fill="#666666"/>
  <rect x="171" y="16" width="1" height="2" fill="#8b8b8b"/>
  <rect x="193" y="16" width="1" height="2" fill="#8b8b8b"/>
  <rect x="194" y="16" width="18" height="1" fill="#d6d6d6"/>
  <rect x="212" y="16" width="1" height="2" fill="#b5b5b5"/>
  <rect x="229" y="16" width="1" height="2" fill="#b5b5b5"/>
  <rect x="230" y="16" width="20" height="1" fill="#d6d6d6"/>
  <rect x="250" y="16" width="1" height="5" fill="#b5b5b5"/>
  <rect x="261" y="16" width="23" height="1" fill="#d6d6d6"/>
  <rect x="143" y="17" width="1" height="2" fill="#8b8b8b"/>
  <rect x="150" y="17" width="2" height="1" fill="#8b8b8b"/>
  <rect x="152" y="17" width="1" height="1" fill="#666666"/>
  <rect x="162" y="17" width="3" height="1" fill="#8b8b8b"/>
  <rect x="170" y="17" width="1" height="1" fill="#666666"/>
  <rect x="194" y="17" width="1" height="1" fill="#d6d6d6"/>
  <rect x="195" y="17" width="2" height="1" fill="#b5b5b5"/>
  <rect x="197" y="17" width="2" height="1" fill="#d6d6d6"/>
  <rect x="199" y="17" width="1" height="3" fill="#b5b5b5"/>
  <rect x="200" y="17" width="5" height="1" fill="#d6d6d6"/>
  <rect x="205" y="17" width="1" height="1" fill="#b5b5b5"/>
  <rect x="206" y="17" width="6" height="1" fill="#d6d6d6"/>
  <rect x="230" y="17" width="1" height="2" fill="#d6d6d6"/>
  <rect x="231" y="17" width="1" height="3" fill="#b5b5b5"/>
  <rect x="232" y="17" width="4" height="3" fill="#d6d6d6"/>
  <rect x="236" y="17" width="1" height="3" fill="#b5b5b5"/>
  <rect x="237" y="17" width="3" height="1" fill="#d6d6d6"/>
  <rect x="240" y="17" width="1" height="1" fill="#b5b5b5"/>
  <rect x="241" y="17" width="9" height="1" fill="#d6d6d6"/>
  <rect x="261" y="17" width="6" height="2" fill="#d6d6d6"/>
  <rect x="267" y="17" width="1" height="2" fill="#b5b5b5"/>
  <rect x="268" y="17" width="13" height="1" fill="#d6d6d6"/>
  <rect x="281" y="17" width="1" height="1" fill="#b5b5b5"/>
  <rect x="282" y="17" width="2" height="1" fill="#d6d6d6"/>
  <rect x="5" y="18" width="1" height="3" fill="#666666"/>
  <rect x="98" y="18" width="25" height="1" fill="#8b8b8b"/>
  <rect x="123" y="18" width="1" height="2" fill="#666666"/>
  <rect x="144" y="18" width="1" height="1" fill="#666666"/>
  <rect x="151" y="18" width="1" height="1" fill="#8b8b8b"/>
  <rect x="152" y="18" width="1" height="2" fill="#b5b5b5"/>
  <rect x="153" y="18" width="1" height="1" fill="#8b8b8b"/>
  <rect x="160" y="18" width="1" height="1" fill="#8b8b8b"/>
  <rect x="161" y="18" width="1" height="1" fill="#b5b5b5"/>
  <rect x="162" y="18" width="2" height="1" fill="#8b8b8b"/>
  <rect x="170" y="18" width="1" height="1" fill="#8b8b8b"/>
  <rect x="191" y="18" width="1" height="1" fill="#8b8b8b"/>
  <rect x="192" y="18" width="2" height="1" fill="#b5b5b5"/>
  <rect x="194" y="18" width="5" height="1" fill="#d6d6d6"/>
  <rect x="200" y="18" width="12" height="1" fill="#d6d6d6"/>
  <rect x="212" y="18" width="2" height="1" fill="#b5b5b5"/>
  <rect x="227" y="18" width="3" height="1" fill="#b5b5b5"/>
  <rect x="237" y="18" width="13" height="1" fill="#d6d6d6"/>
  <rect x="268" y="18" width="16" height="1" fill="#d6d6d6"/>
  <rect x="284" y="18" width="2" height="1" fill="#b5b5b5"/>
  <rect x="98" y="19" width="24" height="1" fill="#8b8b8b"/>
  <rect x="122" y="19" width="1" height="1" fill="#b5b5b5"/>
  <rect x="144" y="19" width="1" height="1" fill="#8b8b8b"/>
  <rect x="151" y="19" width="1" height="1" fill="#666666"/>
  <rect x="153" y="19" width="2" height="1" fill="#8b8b8b"/>
  <rect x="155" y="19" width="5" height="1" fill="#666666"/>
  <rect x="160" y="19" width="4" height="1" fill="#8b8b8b"/>
  <rect x="169" y="19" width="2" height="1" fill="#666666"/>
  <rect x="191" y="19" width="1" height="2" fill="#b5b5b5"/>
  <rect x="192" y="19" width="7" height="1" fill="#d6d6d6"/>
  <rect x="200" y="19" width="5" height="1" fill="#d6d6d6"/>
  <rect x="205" y="19" width="1" height="1" fill="#b5b5b5"/>
  <rect x="206" y="19" width="3" height="1" fill="#d6d6d6"/>
  <rect x="209" y="19" width="1" height="2" fill="#b5b5b5"/>
  <rect x="210" y="19" width="3" height="2" fill="#d6d6d6"/>
  <rect x="213" y="19" width="1" height="2" fill="#b5b5b5"/>
  <rect x="227" y="19" width="4" height="1" fill="#d6d6d6"/>
  <rect x="237" y="19" width="7" height="1" fill="#d6d6d6"/>
  <rect x="244" y="19" width="1" height="1" fill="#b5b5b5"/>
  <rect x="245" y="19" width="2" height="1" fill="#d6d6d6"/>
  <rect x="247" y="19" width="1" height="1" fill="#b5b5b5"/>
  <rect x="248" y="19" width="2" height="1" fill="#d6d6d6"/>
  <rect x="261" y="19" width="25" height="2" fill="#d6d6d6"/>
  <rect x="98" y="20" width="26" height="1" fill="#8b8b8b"/>
  <rect x="124" y="20" width="2" height="1" fill="#666666"/>
  <rect x="144" y="20" width="2" height="1" fill="#666666"/>
  <rect x="153" y="20" width="1" height="1" fill="#666666"/>
  <rect x="154" y="20" width="6" height="1" fill="#b5b5b5"/>
  <rect x="160" y="20" width="1" height="1" fill="#8b8b8b"/>
  <rect x="161" y="20" width="1" height="1" fill="#666666"/>
  <rect x="169" y="20" width="1" height="1" fill="#8b8b8b"/>
  <rect x="189" y="20" width="2" height="1" fill="#8b8b8b"/>
  <rect x="192" y="20" width="17" height="1" fill="#d6d6d6"/>
  <rect x="214" y="20" width="2" height="1" fill="#8b8b8b"/>
  <rect x="225" y="20" width="2" height="1" fill="#8b8b8b"/>
  <rect x="227" y="20" width="23" height="1" fill="#d6d6d6"/>
  <rect x="286" y="20" width="2" height="1" fill="#8b8b8b"/>
  <rect x="288" y="20" width="1" height="1" fill="#666666"/>
  <rect x="98" y="21" width="28" height="1" fill="#8b8b8b"/>
  <rect x="145" y="21" width="1" height="1" fill="#8b8b8b"/>
  <rect x="154" y="21" width="1" height="4" fill="#8b8b8b"/>
  <rect x="155" y="21" width="5" height="4" fill="#b5b5b5"/>
  <rect x="168" y="21" width="1" height="2" fill="#8b8b8b"/>
  <rect x="169" y="21" width="1" height="1" fill="#666666"/>
  <rect x="189" y="21" width="6" height="1" fill="#d6d6d6"/>
  <rect x="195" y="21" width="15" height="1" fill="#b5b5b5"/>
  <rect x="210" y="21" width="1" height="1" fill="#d6d6d6"/>
  <rect x="211" y="21" width="2" height="1" fill="#b5b5b5"/>
  <rect x="213" y="21" width="3" height="1" fill="#d6d6d6"/>
  <rect x="216" y="21" width="1" height="1" fill="#666666"/>
  <rect x="224" y="21" width="1" height="8" fill="#666666"/>
  <rect x="225" y="21" width="6" height="3" fill="#d6d6d6"/>
  <rect x="231" y="21" width="20" height="1" fill="#b5b5b5"/>
  <rect x="261" y="21" width="6" height="6" fill="#d6d6d6"/>
  <rect x="267" y="21" width="1" height="1" fill="#b5b5b5"/>
  <rect x="268" y="21" width="2" height="1" fill="#d6d6d6"/>
  <rect x="270" y="21" width="10" height="1" fill="#b5b5b5"/>
  <rect x="280" y="21" width="1" height="1" fill="#d6d6d6"/>
  <rect x="281" y="21" width="1" height="1" fill="#b5b5b5"/>
  <rect x="282" y="21" width="2" height="1" fill="#d6d6d6"/>
  <rect x="284" y="21" width="1" height="1" fill="#b5b5b5"/>
  <rect x="285" y="21" width="3" height="1" fill="#d6d6d6"/>
  <rect x="288" y="21" width="1" height="1" fill="#8b8b8b"/>
  <rect x="98" y="22" width="7" height="25" fill="#8b8b8b"/>
  <rect x="119" y="22" width="7" height="25" fill="#8b8b8b"/>
  <rect x="146" y="22" width="1" height="2" fill="#8b8b8b"/>
  <rect x="189" y="22" width="1" height="4" fill="#b5b5b5"/>
  <rect x="190" y="22" width="2" height="4" fill="#d6d6d6"/>
  <rect x="192" y="22" width="1" height="4" fill="#b5b5b5"/>
  <rect x="193" y="22" width="2" height="4" fill="#d6d6d6"/>
  <rect x="195" y="22" width="1" height="6" fill="#8b8b8b"/>
  <rect x="209" y="22" width="1" height="6" fill="#666666"/>
  <rect x="210" y="22" width="6" height="2" fill="#d6d6d6"/>
  <rect x="231" y="22" width="1" height="6" fill="#8b8b8b"/>
  <rect x="267" y="22" width="1" height="25" fill="#666666"/>
  <rect x="281" y="22" width="1" height="25" fill="#666666"/>
  <rect x="282" y="22" width="3" height="1" fill="#d6d6d6"/>
  <rect x="285" y="22" width="1" height="1" fill="#b5b5b5"/>
  <rect x="286" y="22" width="2" height="1" fill="#d6d6d6"/>
  <rect x="288" y="22" width="1" height="9" fill="#666666"/>
  <rect x="5" y="23" width="1" height="4" fill="#666666"/>
  <rect x="167" y="23" width="1" height="2" fill="#8b8b8b"/>
  <rect x="282" y="23" width="6" height="5" fill="#d6d6d6"/>
  <rect x="147" y="24" width="1" height="1" fill="#8b8b8b"/>
  <rect x="166" y="24" width="1" height="1" fill="#666666"/>
  <rect x="210" y="24" width="2" height="2" fill="#d6d6d6"/>
  <rect x="212" y="24" width="1" height="1" fill="#b5b5b5"/>
  <rect x="213" y="24" width="3" height="1" fill="#d6d6d6"/>
  <rect x="216" y="24" width="1" height="1" fill="#666666"/>
  <rect x="225" y="24" width="3" height="1" fill="#d6d6d6"/>
  <rect x="228" y="24" width="1" height="1" fill="#b5b5b5"/>
  <rect x="229" y="24" width="2" height="1" fill="#d6d6d6"/>
  <rect x="147" y="25" width="2" height="1" fill="#666666"/>
  <rect x="153" y="25" width="7" height="1" fill="#666666"/>
  <rect x="160" y="25" width="1" height="1" fill="#8b8b8b"/>
  <rect x="166" y="25" width="1" height="1" fill="#8b8b8b"/>
  <rect x="212" y="25" width="2" height="1" fill="#b5b5b5"/>
  <rect x="214" y="25" width="2" height="1" fill="#d6d6d6"/>
  <rect x="225" y="25" width="6" height="3" fill="#d6d6d6"/>
  <rect x="136" y="26" width="5" height="6" fill="#b5b5b5"/>
  <rect x="141" y="26" width="1" height="6" fill="#8b8b8b"/>
  <rect x="148" y="26" width="1" height="1" fill="#8b8b8b"/>
  <rect x="152" y="26" width="1" height="1" fill="#666666"/>
  <rect x="153" y="26" width="1" height="1" fill="#8b8b8b"/>
  <rect x="161" y="26" width="1" height="1" fill="#8b8b8b"/>
  <rect x="165" y="26" width="1" height="2" fill="#8b8b8b"/>
  <rect x="166" y="26" width="1" height="1" fill="#666666"/>
  <rect x="172" y="26" width="1" height="6" fill="#666666"/>
  <rect x="173" y="26" width="5" height="1" fill="#b5b5b5"/>
  <rect x="178" y="26" width="1" height="6" fill="#8b8b8b"/>
  <rect x="189" y="26" width="6" height="1" fill="#d6d6d6"/>
  <rect x="210" y="26" width="6" height="1" fill="#d6d6d6"/>
  <rect x="32" y="27" width="1" height="5" fill="#666666"/>
  <rect x="148" y="27" width="1" height="1" fill="#666666"/>
  <rect x="149" y="27" width="1" height="2" fill="#8b8b8b"/>
  <rect x="151" y="27" width="1" height="1" fill="#666666"/>
  <rect x="152" y="27" width="1" height="1" fill="#8b8b8b"/>
  <rect x="161" y="27" width="1" height="1" fill="#666666"/>
  <rect x="162" y="27" width="1" height="1" fill="#8b8b8b"/>
  <rect x="173" y="27" width="4" height="1" fill="#b5b5b5"/>
  <rect x="177" y="27" width="1" height="1" fill="#d6d6d6"/>
  <rect x="189" y="27" width="1" height="3" fill="#b5b5b5"/>
  <rect x="190" y="27" width="2" height="1" fill="#d6d6d6"/>
  <rect x="192" y="27" width="2" height="1" fill="#b5b5b5"/>
  <rect x="194" y="27" width="1" height="1" fill="#d6d6d6"/>
  <rect x="210" y="27" width="2" height="1" fill="#d6d6d6"/>
  <rect x="212" y="27" width="2" height="1" fill="#b5b5b5"/>
  <rect x="214" y="27" width="2" height="2" fill="#d6d6d6"/>
  <rect x="261" y="27" width="2" height="2" fill="#d6d6d6"/>
  <rect x="263" y="27" width="2" height="2" fill="#b5b5b5"/>
  <rect x="265" y="27" width="2" height="2" fill="#d6d6d6"/>
  <rect x="5" y="28" width="1" height="6" fill="#666666"/>
  <rect x="150" y="28" width="1" height="1" fill="#666666"/>
  <rect x="151" y="28" width="1" height="1" fill="#8b8b8b"/>
  <rect x="162" y="28" width="1" height="1" fill="#666666"/>
  <rect x="163" y="28" width="2" height="3" fill="#8b8b8b"/>
  <rect x="165" y="28" width="1" height="1" fill="#666666"/>
  <rect x="173" y="28" width="5" height="4" fill="#b5b5b5"/>
  <rect x="190" y="28" width="1" height="1" fill="#d6d6d6"/>
  <rect x="191" y="28" width="13" height="1" fill="#b5b5b5"/>
  <rect x="204" y="28" width="1" height="1" fill="#d6d6d6"/>
  <rect x="205" y="28" width="2" height="1" fill="#b5b5b5"/>
  <rect x="207" y="28" width="1" height="1" fill="#d6d6d6"/>
  <rect x="208" y="28" width="6" height="1" fill="#b5b5b5"/>
  <rect x="216" y="28" width="1" height="3" fill="#666666"/>
  <rect x="225" y="28" width="3" height="1" fill="#d6d6d6"/>
  <rect x="228" y="28" width="17" height="1" fill="#b5b5b5"/>
  <rect x="245" y="28" width="1" height="1" fill="#d6d6d6"/>
  <rect x="246" y="28" width="1" height="2" fill="#666666"/>
  <rect x="282" y="28" width="1" height="1" fill="#d6d6d6"/>
  <rect x="283" y="28" width="4" height="1" fill="#b5b5b5"/>
  <rect x="287" y="28" width="1" height="1" fill="#d6d6d6"/>
  <rect x="150" y="29" width="1" height="1" fill="#b5b5b5"/>
  <rect x="190" y="29" width="2" height="1" fill="#d6d6d6"/>
  <rect x="192" y="29" width="1" height="1" fill="#b5b5b5"/>
  <rect x="193" y="29" width="2" height="1" fill="#d6d6d6"/>
  <rect x="195" y="29" width="1" height="4" fill="#b5b5b5"/>
  <rect x="196" y="29" width="13" height="1" fill="#d6d6d6"/>
  <rect x="209" y="29" width="1" height="4" fill="#b5b5b5"/>
  <rect x="210" y="29" width="2" height="2" fill="#d6d6d6"/>
  <rect x="212" y="29" width="1" height="2" fill="#b5b5b5"/>
  <rect x="213" y="29" width="3" height="2" fill="#d6d6d6"/>
  <rect x="225" y="29" width="2" height="1" fill="#b5b5b5"/>
  <rect x="227" y="29" width="4" height="1" fill="#d6d6d6"/>
  <rect x="231" y="29" width="1" height="2" fill="#b5b5b5"/>
  <rect x="232" y="29" width="14" height="1" fill="#d6d6d6"/>
  <rect x="261" y="29" width="6" height="9" fill="#d6d6d6"/>
  <rect x="282" y="29" width="6" height="5" fill="#d6d6d6"/>
  <rect x="149" y="30" width="2" height="1" fill="#8b8b8b"/>
  <rect x="151" y="30" width="1" height="1" fill="#666666"/>
  <rect x="165" y="30" width="1" height="1" fill="#666666"/>
  <rect x="189" y="30" width="6" height="2" fill="#d6d6d6"/>
  <rect x="196" y="30" width="3" height="3" fill="#d6d6d6"/>
  <rect x="199" y="30" width="1" height="3" fill="#b5b5b5"/>
  <rect x="200" y="30" width="5" height="2" fill="#d6d6d6"/>
  <rect x="205" y="30" width="1" height="2" fill="#b5b5b5"/>
  <rect x="206" y="30" width="3" height="2" fill="#d6d6d6"/>
  <rect x="227" y="30" width="1" height="2" fill="#b5b5b5"/>
  <rect x="228" y="30" width="3" height="1" fill="#d6d6d6"/>
  <rect x="232" y="30" width="4" height="1" fill="#d6d6d6"/>
  <rect x="236" y="30" width="1" height="3" fill="#b5b5b5"/>
  <rect x="237" y="30" width="3" height="3" fill="#d6d6d6"/>
  <rect x="240" y="30" width="1" height="3" fill="#b5b5b5"/>
  <rect x="241" y="30" width="5" height="1" fill="#d6d6d6"/>
  <rect x="246" y="30" width="1" height="1" fill="#b5b5b5"/>
  <rect x="247" y="30" width="1" height="1" fill="#8b8b8b"/>
  <rect x="248" y="30" width="1" height="1" fill="#666666"/>
  <rect x="148" y="31" width="1" height="1" fill="#8b8b8b"/>
  <rect x="149" y="31" width="1" height="1" fill="#666666"/>
  <rect x="151" y="31" width="1" height="1" fill="#8b8b8b"/>
  <rect x="162" y="31" width="2" height="1" fill="#666666"/>
  <rect x="165" y="31" width="1" height="1" fill="#8b8b8b"/>
  <rect x="210" y="31" width="6" height="2" fill="#d6d6d6"/>
  <rect x="228" y="31" width="8" height="1" fill="#d6d6d6"/>
  <rect x="241" y="31" width="7" height="1" fill="#d6d6d6"/>
  <rect x="248" y="31" width="1" height="2" fill="#8b8b8b"/>
  <rect x="288" y="31" width="1" height="1" fill="#8b8b8b"/>
  <rect x="138" y="32" width="2" height="8" fill="#666666"/>
  <rect x="147" y="32" width="1" height="2" fill="#8b8b8b"/>
  <rect x="148" y="32" width="1" height="1" fill="#666666"/>
  <rect x="152" y="32" width="1" height="1" fill="#666666"/>
  <rect x="162" y="32" width="1" height="1" fill="#8b8b8b"/>
  <rect x="166" y="32" width="1" height="1" fill="#8b8b8b"/>
  <rect x="175" y="32" width="1" height="1" fill="#8b8b8b"/>
  <rect x="189" y="32" width="1" height="2" fill="#b5b5b5"/>
  <rect x="190" y="32" width="5" height="1" fill="#d6d6d6"/>
  <rect x="200" y="32" width="2" height="1" fill="#d6d6d6"/>
  <rect x="202" y="32" width="1" height="1" fill="#b5b5b5"/>
  <rect x="203" y="32" width="2" height="1" fill="#d6d6d6"/>
  <rect x="205" y="32" width="2" height="1" fill="#b5b5b5"/>
  <rect x="207" y="32" width="2" height="1" fill="#d6d6d6"/>
  <rect x="229" y="32" width="1" height="2" fill="#b5b5b5"/>
  <rect x="230" y="32" width="1" height="1" fill="#d6d6d6"/>
  <rect x="231" y="32" width="1" height="1" fill="#b5b5b5"/>
  <rect x="232" y="32" width="4" height="1" fill="#d6d6d6"/>
  <rect x="241" y="32" width="5" height="1" fill="#d6d6d6"/>
  <rect x="246" y="32" width="1" height="1" fill="#b5b5b5"/>
  <rect x="247" y="32" width="1" height="1" fill="#d6d6d6"/>
  <rect x="288" y="32" width="1" height="15" fill="#666666"/>
  <rect x="146" y="33" width="1" height="1" fill="#666666"/>
  <rect x="152" y="33" width="1" height="1" fill="#8b8b8b"/>
  <rect x="161" y="33" width="1" height="2" fill="#8b8b8b"/>
  <rect x="162" y="33" width="1" height="1" fill="#666666"/>
  <rect x="166" y="33" width="1" height="1" fill="#666666"/>
  <rect x="167" y="33" width="1" height="1" fill="#8b8b8b"/>
  <rect x="175" y="33" width="1" height="1" fill="#666666"/>
  <rect x="190" y="33" width="2" height="1" fill="#d6d6d6"/>
  <rect x="192" y="33" width="1" height="1" fill="#b5b5b5"/>
  <rect x="193" y="33" width="23" height="1" fill="#d6d6d6"/>
  <rect x="230" y="33" width="16" height="1" fill="#d6d6d6"/>
  <rect x="246" y="33" width="3" height="1" fill="#b5b5b5"/>
  <rect x="249" y="33" width="1" height="2" fill="#d6d6d6"/>
  <rect x="250" y="33" width="1" height="9" fill="#b5b5b5"/>
  <rect x="145" y="34" width="1" height="1" fill="#666666"/>
  <rect x="146" y="34" width="1" height="1" fill="#8b8b8b"/>
  <rect x="153" y="34" width="1" height="1" fill="#8b8b8b"/>
  <rect x="167" y="34" width="1" height="1" fill="#666666"/>
  <rect x="168" y="34" width="1" height="2" fill="#8b8b8b"/>
  <rect x="175" y="34" width="1" height="6" fill="#8b8b8b"/>
  <rect x="189" y="34" width="5" height="1" fill="#b5b5b5"/>
  <rect x="194" y="34" width="1" height="1" fill="#d6d6d6"/>
  <rect x="195" y="34" width="1" height="1" fill="#b5b5b5"/>
  <rect x="196" y="34" width="20" height="1" fill="#8b8b8b"/>
  <rect x="229" y="34" width="1" height="1" fill="#666666"/>
  <rect x="230" y="34" width="14" height="1" fill="#8b8b8b"/>
  <rect x="244" y="34" width="5" height="1" fill="#b5b5b5"/>
  <rect x="282" y="34" width="3" height="1" fill="#d6d6d6"/>
  <rect x="285" y="34" width="1" height="1" fill="#b5b5b5"/>
  <rect x="286" y="34" width="2" height="1" fill="#d6d6d6"/>
  <rect x="32" y="35" width="1" height="5" fill="#666666"/>
  <rect x="145" y="35" width="1" height="1" fill="#8b8b8b"/>
  <rect x="153" y="35" width="2" height="1" fill="#666666"/>
  <rect x="160" y="35" width="1" height="2" fill="#8b8b8b"/>
  <rect x="169" y="35" width="1" height="1" fill="#666666"/>
  <rect x="189" y="35" width="1" height="7" fill="#b5b5b5"/>
  <rect x="190" y="35" width="5" height="3" fill="#d6d6d6"/>
  <rect x="195" y="35" width="1" height="5" fill="#8b8b8b"/>
  <rect x="244" y="35" width="1" height="5" fill="#b5b5b5"/>
  <rect x="245" y="35" width="5" height="5" fill="#d6d6d6"/>
  <rect x="282" y="35" width="6" height="5" fill="#d6d6d6"/>
  <rect x="5" y="36" width="1" height="6" fill="#666666"/>
  <rect x="144" y="36" width="1" height="1" fill="#8b8b8b"/>
  <rect x="154" y="36" width="1" height="1" fill="#8b8b8b"/>
  <rect x="159" y="36" width="1" height="1" fill="#666666"/>
  <rect x="169" y="36" width="1" height="1" fill="#8b8b8b"/>
  <rect x="143" y="37" width="1" height="1" fill="#8b8b8b"/>
  <rect x="144" y="37" width="1" height="1" fill="#666666"/>
  <rect x="154" y="37" width="1" height="1" fill="#666666"/>
  <rect x="155" y="37" width="1" height="1" fill="#8b8b8b"/>
  <rect x="159" y="37" width="1" height="1" fill="#8b8b8b"/>
  <rect x="170" y="37" width="1" height="1" fill="#8b8b8b"/>
  <rect x="49" y="38" width="9" height="3" fill="#8b8b8b"/>
  <rect x="63" y="38" width="11" height="3" fill="#8b8b8b"/>
  <rect x="74" y="38" width="1" height="1" fill="#666666"/>
  <rect x="80" y="38" width="8" height="3" fill="#8b8b8b"/>
  <rect x="142" y="38" width="1" height="2" fill="#8b8b8b"/>
  <rect x="143" y="38" width="1" height="1" fill="#666666"/>
  <rect x="154" y="38" width="1" height="5" fill="#8b8b8b"/>
  <rect x="155" y="38" width="5" height="5" fill="#b5b5b5"/>
  <rect x="170" y="38" width="1" height="1" fill="#666666"/>
  <rect x="171" y="38" width="1" height="1" fill="#8b8b8b"/>
  <rect x="190" y="38" width="2" height="2" fill="#d6d6d6"/>
  <rect x="192" y="38" width="1" height="2" fill="#b5b5b5"/>
  <rect x="193" y="38" width="2" height="2" fill="#d6d6d6"/>
  <rect x="261" y="38" width="3" height="1" fill="#d6d6d6"/>
  <rect x="264" y="38" width="1" height="1" fill="#b5b5b5"/>
  <rect x="265" y="38" width="2" height="1" fill="#d6d6d6"/>
  <rect x="39" y="39" width="1" height="2" fill="#666666"/>
  <rect x="141" y="39" width="1" height="1" fill="#666666"/>
  <rect x="171" y="39" width="1" height="1" fill="#666666"/>
  <rect x="172" y="39" width="1" height="1" fill="#8b8b8b"/>
  <rect x="261" y="39" width="6" height="1" fill="#d6d6d6"/>
  <rect x="12" y="40" width="21" height="1" fill="#666666"/>
  <rect x="58" y="40" width="5" height="1" fill="#666666"/>
  <rect x="74" y="40" width="6" height="1" fill="#666666"/>
  <rect x="136" y="40" width="2" height="1" fill="#666666"/>
  <rect x="138" y="40" width="2" height="1" fill="#8b8b8b"/>
  <rect x="140" y="40" width="1" height="1" fill="#666666"/>
  <rect x="141" y="40" width="1" height="5" fill="#8b8b8b"/>
  <rect x="172" y="40" width="2" height="1" fill="#8b8b8b"/>
  <rect x="174" y="40" width="1" height="1" fill="#666666"/>
  <rect x="175" y="40" width="3" height="1" fill="#8b8b8b"/>
  <rect x="178" y="40" width="1" height="1" fill="#666666"/>
  <rect x="190" y="40" width="1" height="1" fill="#d6d6d6"/>
  <rect x="191" y="40" width="3" height="1" fill="#b5b5b5"/>
  <rect x="194" y="40" width="1" height="1" fill="#d6d6d6"/>
  <rect x="195" y="40" width="1" height="1" fill="#b5b5b5"/>
  <rect x="196" y="40" width="13" height="1" fill="#8b8b8b"/>
  <rect x="209" y="40" width="1" height="1" fill="#666666"/>
  <rect x="210" y="40" width="6" height="1" fill="#8b8b8b"/>
  <rect x="225" y="40" width="3" height="1" fill="#8b8b8b"/>
  <rect x="228" y="40" width="1" height="1" fill="#666666"/>
  <rect x="229" y="40" width="15" height="1" fill="#8b8b8b"/>
  <rect x="244" y="40" width="4" height="1" fill="#b5b5b5"/>
  <rect x="248" y="40" width="2" height="1" fill="#d6d6d6"/>
  <rect x="261" y="40" width="2" height="1" fill="#d6d6d6"/>
  <rect x="263" y="40" width="4" height="1" fill="#b5b5b5"/>
  <rect x="282" y="40" width="1" height="1" fill="#d6d6d6"/>
  <rect x="283" y="40" width="4" height="1" fill="#b5b5b5"/>
  <rect x="287" y="40" width="1" height="1" fill="#d6d6d6"/>
  <rect x="6" y="41" width="33" height="1" fill="#8b8b8b"/>
  <rect x="49" y="41" width="39" height="1" fill="#8b8b8b"/>
  <rect x="136" y="41" width="5" height="4" fill="#b5b5b5"/>
  <rect x="172" y="41" width="1" height="6" fill="#666666"/>
  <rect x="173" y="41" width="1" height="1" fill="#d6d6d6"/>
  <rect x="174" y="41" width="3" height="1" fill="#b5b5b5"/>
  <rect x="177" y="41" width="1" height="1" fill="#d6d6d6"/>
  <rect x="178" y="41" width="1" height="6" fill="#8b8b8b"/>
  <rect x="190" y="41" width="26" height="1" fill="#d6d6d6"/>
  <rect x="216" y="41" width="1" height="2" fill="#666666"/>
  <rect x="224" y="41" width="1" height="6" fill="#666666"/>
  <rect x="225" y="41" width="19" height="1" fill="#d6d6d6"/>
  <rect x="244" y="41" width="1" height="1" fill="#b5b5b5"/>
  <rect x="245" y="41" width="1" height="2" fill="#d6d6d6"/>
  <rect x="246" y="41" width="1" height="2" fill="#b5b5b5"/>
  <rect x="247" y="41" width="1" height="2" fill="#d6d6d6"/>
  <rect x="248" y="41" width="1" height="1" fill="#b5b5b5"/>
  <rect x="249" y="41" width="1" height="1" fill="#d6d6d6"/>
  <rect x="261" y="41" width="6" height="5" fill="#d6d6d6"/>
  <rect x="282" y="41" width="6" height="3" fill="#d6d6d6"/>
  <rect x="8" y="42" width="29" height="2" fill="#8b8b8b"/>
  <rect x="51" y="42" width="16" height="2" fill="#8b8b8b"/>
  <rect x="67" y="42" width="1" height="2" fill="#666666"/>
  <rect x="70" y="42" width="16" height="2" fill="#8b8b8b"/>
  <rect x="173" y="42" width="5" height="3" fill="#b5b5b5"/>
  <rect x="191" y="42" width="1" height="2" fill="#b5b5b5"/>
  <rect x="192" y="42" width="7" height="1" fill="#d6d6d6"/>
  <rect x="199" y="42" width="1" height="3" fill="#b5b5b5"/>
  <rect x="200" y="42" width="2" height="1" fill="#d6d6d6"/>
  <rect x="202" y="42" width="1" height="1" fill="#b5b5b5"/>
  <rect x="203" y="42" width="2" height="1" fill="#d6d6d6"/>
  <rect x="205" y="42" width="1" height="2" fill="#b5b5b5"/>
  <rect x="206" y="42" width="3" height="2" fill="#d6d6d6"/>
  <rect x="209" y="42" width="1" height="2" fill="#b5b5b5"/>
  <rect x="210" y="42" width="2" height="1" fill="#d6d6d6"/>
  <rect x="212" y="42" width="1" height="1" fill="#b5b5b5"/>
  <rect x="213" y="42" width="3" height="1" fill="#d6d6d6"/>
  <rect x="225" y="42" width="3" height="1" fill="#d6d6d6"/>
  <rect x="228" y="42" width="1" height="1" fill="#b5b5b5"/>
  <rect x="229" y="42" width="2" height="1" fill="#d6d6d6"/>
  <rect x="231" y="42" width="1" height="4" fill="#b5b5b5"/>
  <rect x="232" y="42" width="1" height="1" fill="#d6d6d6"/>
  <rect x="233" y="42" width="4" height="1" fill="#b5b5b5"/>
  <rect x="237" y="42" width="1" height="1" fill="#d6d6d6"/>
  <rect x="238" y="42" width="1" height="1" fill="#b5b5b5"/>
  <rect x="239" y="42" width="4" height="1" fill="#d6d6d6"/>
  <rect x="243" y="42" width="2" height="1" fill="#b5b5b5"/>
  <rect x="248" y="42" width="1" height="2" fill="#8b8b8b"/>
  <rect x="154" y="43" width="1" height="1" fill="#666666"/>
  <rect x="155" y="43" width="1" height="1" fill="#b5b5b5"/>
  <rect x="156" y="43" width="1" height="1" fill="#8b8b8b"/>
  <rect x="157" y="43" width="3" height="1" fill="#b5b5b5"/>
  <rect x="192" y="43" width="3" height="1" fill="#d6d6d6"/>
  <rect x="195" y="43" width="1" height="2" fill="#b5b5b5"/>
  <rect x="196" y="43" width="3" height="2" fill="#d6d6d6"/>
  <rect x="200" y="43" width="5" height="1" fill="#d6d6d6"/>
  <rect x="210" y="43" width="6" height="1" fill="#d6d6d6"/>
  <rect x="225" y="43" width="6" height="1" fill="#d6d6d6"/>
  <rect x="232" y="43" width="3" height="2" fill="#d6d6d6"/>
  <rect x="235" y="43" width="1" height="2" fill="#b5b5b5"/>
  <rect x="236" y="43" width="8" height="1" fill="#d6d6d6"/>
  <rect x="244" y="43" width="1" height="1" fill="#b5b5b5"/>
  <rect x="245" y="43" width="3" height="1" fill="#d6d6d6"/>
  <rect x="10" y="44" width="25" height="1" fill="#8b8b8b"/>
  <rect x="53" y="44" width="1" height="3" fill="#666666"/>
  <rect x="54" y="44" width="11" height="3" fill="#8b8b8b"/>
  <rect x="65" y="44" width="1" height="3" fill="#666666"/>
  <rect x="72" y="44" width="12" height="3" fill="#8b8b8b"/>
  <rect x="192" y="44" width="1" height="1" fill="#666666"/>
  <rect x="193" y="44" width="1" height="3" fill="#8b8b8b"/>
  <rect x="194" y="44" width="1" height="1" fill="#d6d6d6"/>
  <rect x="200" y="44" width="2" height="1" fill="#d6d6d6"/>
  <rect x="202" y="44" width="1" height="2" fill="#b5b5b5"/>
  <rect x="203" y="44" width="2" height="2" fill="#d6d6d6"/>
  <rect x="205" y="44" width="2" height="1" fill="#b5b5b5"/>
  <rect x="207" y="44" width="5" height="1" fill="#d6d6d6"/>
  <rect x="212" y="44" width="1" height="2" fill="#b5b5b5"/>
  <rect x="213" y="44" width="3" height="2" fill="#d6d6d6"/>
  <rect x="225" y="44" width="3" height="2" fill="#d6d6d6"/>
  <rect x="228" y="44" width="1" height="2" fill="#b5b5b5"/>
  <rect x="229" y="44" width="2" height="2" fill="#d6d6d6"/>
  <rect x="236" y="44" width="2" height="1" fill="#d6d6d6"/>
  <rect x="238" y="44" width="2" height="2" fill="#b5b5b5"/>
  <rect x="240" y="44" width="1" height="2" fill="#d6d6d6"/>
  <rect x="241" y="44" width="1" height="2" fill="#b5b5b5"/>
  <rect x="242" y="44" width="4" height="2" fill="#d6d6d6"/>
  <rect x="246" y="44" width="1" height="1" fill="#8b8b8b"/>
  <rect x="247" y="44" width="1" height="1" fill="#666666"/>
  <rect x="282" y="44" width="3" height="1" fill="#d6d6d6"/>
  <rect x="285" y="44" width="1" height="1" fill="#b5b5b5"/>
  <rect x="286" y="44" width="2" height="1" fill="#d6d6d6"/>
  <rect x="10" y="45" width="24" height="2" fill="#8b8b8b"/>
  <rect x="34" y="45" width="1" height="2" fill="#666666"/>
  <rect x="136" y="45" width="6" height="1" fill="#b5b5b5"/>
  <rect x="173" y="45" width="1" height="1" fill="#d6d6d6"/>
  <rect x="174" y="45" width="3" height="1" fill="#b5b5b5"/>
  <rect x="177" y="45" width="1" height="1" fill="#d6d6d6"/>
  <rect x="194" y="45" width="8" height="1" fill="#d6d6d6"/>
  <rect x="205" y="45" width="1" height="2" fill="#b5b5b5"/>
  <rect x="206" y="45" width="6" height="1" fill="#d6d6d6"/>
  <rect x="232" y="45" width="6" height="1" fill="#d6d6d6"/>
  <rect x="246" y="45" width="1" height="2" fill="#666666"/>
  <rect x="282" y="45" width="6" height="1" fill="#d6d6d6"/>
  <rect x="136" y="46" width="5" height="1" fill="#b5b5b5"/>
  <rect x="141" y="46" width="1" height="1" fill="#8b8b8b"/>
  <rect x="173" y="46" width="5" height="1" fill="#b5b5b5"/>
  <rect x="194" y="46" width="1" height="1" fill="#d6d6d6"/>
  <rect x="195" y="46" width="5" height="1" fill="#b5b5b5"/>
  <rect x="200" y="46" width="2" height="1" fill="#d6d6d6"/>
  <rect x="202" y="46" width="2" height="1" fill="#b5b5b5"/>
  <rect x="204" y="46" width="1" height="1" fill="#d6d6d6"/>
  <rect x="206" y="46" width="3" height="1" fill="#d6d6d6"/>
  <rect x="209" y="46" width="6" height="1" fill="#b5b5b5"/>
  <rect x="215" y="46" width="1" height="1" fill="#d6d6d6"/>
  <rect x="225" y="46" width="2" height="1" fill="#d6d6d6"/>
  <rect x="227" y="46" width="6" height="1" fill="#b5b5b5"/>
  <rect x="233" y="46" width="2" height="1" fill="#d6d6d6"/>
  <rect x="235" y="46" width="2" height="1" fill="#b5b5b5"/>
  <rect x="237" y="46" width="1" height="1" fill="#d6d6d6"/>
  <rect x="238" y="46" width="7" height="1" fill="#b5b5b5"/>
  <rect x="245" y="46" width="1" height="1" fill="#d6d6d6"/>
  <rect x="261" y="46" width="2" height="1" fill="#d6d6d6"/>
  <rect x="263" y="46" width="2" height="1" fill="#b5b5b5"/>
  <rect x="265" y="46" width="2" height="1" fill="#d6d6d6"/>
  <rect x="282" y="46" width="1" height="1" fill="#d6d6d6"/>
  <rect x="283" y="46" width="3" height="1" fill="#b5b5b5"/>
  <rect x="286" y="46" width="2" height="1" fill="#d6d6d6"/>
</svg>


